Crispy-parametric-NarrowBlackMaxGrade-MaxShadow.ufo
<glyph name="four" format="2">
  <advance width="862"/>
  <unicode hex="0034"/>
  <outline>
    <contour>
      <point x="440" y="0" type="line"/>
      <point x="780" y="0" type="line"/>
      <point x="780" y="667" type="line"/>
      <point x="844" y="667" type="line"/>
      <point x="844" y="926" type="line"/>
      <point x="780" y="926" type="line"/>
      <point x="780" y="1600" type="line"/>
      <point x="440" y="1600" type="line"/>
      <point x="440" y="926" type="line"/>
      <point x="357" y="926" type="line"/>
      <point x="357" y="985" type="line"/>
      <point x="423" y="1680" type="line"/>
      <point x="92" y="1680" type="line"/>
      <point x="17" y="984" type="line"/>
      <point x="17" y="667" type="line"/>
      <point x="440" y="667" type="line"/>
    </contour>
  </outline>
</glyph>
<glyph name="five" format="2">
  <advance width="800"/>
  <unicode hex="0035"/>
  <outline>
    <contour>
      <point x="19" y="0" type="line" identifier="09VlJ0BjUX"/>
      <point x="783" y="0" type="line" identifier="EagWihqFM8"/>
      <point x="783" y="964" type="line" identifier="KfNuQA7eZe"/>
      <point x="357" y="964" type="line" identifier="At364YZFEy"/>
      <point x="357" y="1341" type="line" identifier="BcuLfvaQKC"/>
      <point x="783" y="1341" type="line" identifier="3ZUkG35meB"/>
      <point x="783" y="1600" type="line" identifier="SaF9ojRFrW"/>
      <point x="17" y="1600" type="line" identifier="F4sQEYelA8"/>
      <point x="17" y="705" type="line" identifier="3sQ8t8BZ6b"/>
      <point x="443" y="705" type="line" identifier="yiV6OCBLHg"/>
      <point x="443" y="259" type="line" identifier="9kdl9SYsn8"/>
      <point x="358" y="259" type="line" identifier="yZDWuX8LLe"/>
      <point x="358" y="472" type="line" identifier="jYb9001DTm"/>
      <point x="19" y="472" type="line" identifier="ho4DrS0rdW"/>
    </contour>
  </outline>
</glyph>
<glyph name="six" format="2">
  <advance width="821"/>
  <unicode hex="0036"/>
  <outline>
    <contour>
      <point x="24" y="0" type="line" identifier="uiw6aBUf4P"/>
      <point x="804" y="0" type="line" identifier="jtYkxiUX6G"/>
      <point x="804" y="902" type="line" identifier="2G5L37c87I"/>
      <point x="364" y="902" type="line"/>
      <point x="364" y="1176" type="line"/>
      <point x="396" y="1341" type="line"/>
      <point x="464" y="1341" type="line"/>
      <point x="464" y="1099" type="line"/>
      <point x="803" y="1099" type="line" identifier="Wuidbv6mUe"/>
      <point x="803" y="1600" type="line" identifier="oGvEEuxnYv"/>
      <point x="93" y="1600" type="line" identifier="xR3pEHbMJx"/>
      <point x="24" y="1177" type="line" identifier="KnMArb0tv8"/>
    </contour>
    <contour>
      <point x="465" y="642" type="line"/>
      <point x="465" y="259" type="line"/>
      <point x="364" y="259" type="line"/>
      <point x="364" y="642" type="line"/>
    </contour>
  </outline>
</glyph>
<glyph name="eight" format="2">
  <advance width="841"/>
  <unicode hex="0038"/>
  <outline>
    <contour>
      <point x="435" y="670" type="line"/>
      <point x="478" y="613" type="line"/>
      <point x="478" y="259" type="line"/>
      <point x="364" y="259" type="line"/>
      <point x="364" y="613" type="line"/>
      <point x="406" y="670" type="line"/>
    </contour>
    <contour>
      <point x="740" y="799" type="line"/>
      <point x="740" y="801" type="line"/>
      <point x="814" y="921" type="line"/>
      <point x="814" y="1600" type="line"/>
      <point x="28" y="1600" type="line"/>
      <point x="28" y="921" type="line"/>
      <point x="103" y="801" type="line"/>
      <point x="103" y="799" type="line"/>
      <point x="24" y="676" type="line"/>
      <point x="24" y="0" type="line"/>
      <point x="817" y="0" type="line"/>
      <point x="817" y="676" type="line"/>
    </contour>
    <contour>
      <point x="406" y="930" type="line"/>
      <point x="367" y="984" type="line"/>
      <point x="367" y="1341" type="line"/>
      <point x="474" y="1341" type="line"/>
      <point x="474" y="984" type="line"/>
      <point x="435" y="930" type="line"/>
    </contour>
  </outline>
</glyph>
<glyph name="A" format="2">
  <advance width="839"/>
  <unicode hex="0041"/>
  <outline>
    <contour>
      <point x="24" y="0" type="line" smooth="yes" identifier="jFq8ta4UUc"/>
      <point x="364" y="0" type="line" smooth="yes" identifier="dQz4RxYhG4"/>
      <point x="364" y="581" type="line" smooth="yes" identifier="viYRWe5UN7"/>
      <point x="464" y="581" type="line" smooth="yes" identifier="QVexAlbAcl"/>
      <point x="464" y="0" type="line" smooth="yes" identifier="ZgsCdxNJRW"/>
      <point x="804" y="0" type="line" smooth="yes" identifier="kpn4Kw9J0C"/>
      <point x="804" y="1600" type="line" smooth="yes" identifier="OBZ5Ayed7M"/>
      <point x="125" y="1600" type="line" smooth="yes" identifier="iDT0uyhKrn"/>
      <point x="24" y="1133" type="line" smooth="yes" identifier="dqVr87m3uJ"/>
    </contour>
    <contour>
      <point x="364" y="840" type="line" smooth="yes" identifier="IIRC9Wy7kQ"/>
      <point x="364" y="1133" type="line" smooth="yes" identifier="VufvPdJ075"/>
      <point x="407" y="1341" type="line" smooth="yes" identifier="FsYtJ2vFnp"/>
      <point x="464" y="1341" type="line" smooth="yes" identifier="tUsW8L7b0y"/>
      <point x="464" y="840" type="line" smooth="yes" identifier="eTe9B4y76W"/>
    </contour>
  </outline>
</glyph>
<glyph name="O" format="2">
  <advance width="831"/>
  <unicode hex="004F"/>
  <outline>
    <contour>
      <point x="806" y="355" type="line" identifier="ob8US3C311"/>
      <point x="806" y="1600" type="line" identifier="c9brEFyXXA"/>
      <point x="112" y="1600" type="line" identifier="a4Ql951bxG"/>
      <point x="24" y="1246" type="line" identifier="kbL68Qh2zr"/>
      <point x="24" y="0" type="line" identifier="U6WibAQAUl"/>
      <point x="719" y="0" type="line" identifier="dfgNHTgBfR"/>
    </contour>
    <contour>
      <point x="467" y="367" type="line" identifier="SnrsQD5TLy"/>
      <point x="437" y="250" type="line" identifier="jjd5iRDXWT"/>
      <point x="364" y="250" type="line" identifier="YbQKHpAtYn"/>
      <point x="364" y="1235" type="line" identifier="vdfGLkskOQ"/>
      <point x="395" y="1355" type="line" identifier="qXlVxK5ShE"/>
      <point x="467" y="1355" type="line" identifier="g70r2r6DwY"/>
    </contour>
  </outline>
</glyph>
<glyph name="A.shadow" format="2">
  <advance width="770"/>
  <outline>
    <contour>
      <point x="464" y="581" type="line" smooth="yes" identifier="QVexAlbAcl"/>
      <point x="364" y="581" type="line" smooth="yes" identifier="viYRWe5UN7"/>
      <point x="364" y="531" type="line"/>
      <point x="414" y="531" type="line"/>
      <point x="414" y="-50" type="line"/>
      <point x="754" y="-50" type="line"/>
      <point x="804" y="0" type="line" smooth="yes" identifier="kpn4Kw9J0C"/>
      <point x="464" y="0" type="line" smooth="yes" identifier="ZgsCdxNJRW"/>
    </contour>
    <contour>
      <point x="414" y="1291" type="line"/>
      <point x="414" y="840" type="line"/>
      <point x="464" y="840" type="line" smooth="yes" identifier="eTe9B4y76W"/>
      <point x="464" y="1341" type="line" smooth="yes" identifier="tUsW8L7b0y"/>
      <point x="407" y="1341" type="line" smooth="yes" identifier="FsYtJ2vFnp"/>
      <point x="364" y="1133" type="line" smooth="yes" identifier="VufvPdJ075"/>
      <point x="397" y="1291" type="line"/>
    </contour>
    <contour>
      <point x="24" y="0" type="line" smooth="yes" identifier="jFq8ta4UUc"/>
      <point x="24" y="1133" type="line" smooth="yes" identifier="dqVr87m3uJ"/>
      <point x="125" y="1600" type="line" smooth="yes" identifier="iDT0uyhKrn"/>
      <point x="75" y="1550" type="line"/>
      <point x="-26" y="1083" type="line"/>
      <point x="-26" y="-50" type="line"/>
      <point x="314" y="-50" type="line"/>
      <point x="364" y="0" type="line" smooth="yes" identifier="dQz4RxYhG4"/>
    </contour>
  </outline>
</glyph>
<glyph name="B.narrow.shadow" format="2">
  <advance width="769"/>
  <outline>
    <contour>
      <point x="815" y="675" type="line" identifier="543PerILpr"/>
      <point x="738" y="770" type="line"/>
      <point x="761" y="783" type="line"/>
      <point x="811" y="833" type="line" identifier="eGKH52Jgnk"/>
      <point x="726" y="784" type="line" identifier="870ZhtaozS"/>
    </contour>
    <contour>
      <point x="374" y="874" type="line" identifier="By7dfMihfe"/>
      <point x="422" y="897" type="line"/>
      <point x="422" y="897" type="line"/>
      <point x="472" y="921" type="line" identifier="9lW01gQyU2"/>
      <point x="472" y="1341" type="line" identifier="Qby8aMtF2X"/>
      <point x="374" y="1341" type="line" identifier="1p5hKrurVy"/>
      <point x="374" y="1291" type="line"/>
      <point x="422" y="1291" type="line"/>
      <point x="422" y="897" type="line"/>
    </contour>
    <contour>
      <point x="425" y="259" type="line"/>
      <point x="475" y="259" type="line" identifier="xhlDJ3CjD5"/>
      <point x="475" y="594" type="line" identifier="lsRGatjQja"/>
      <point x="419" y="669" type="line" identifier="VyYlzRh5nq"/>
      <point x="374" y="648" type="line" identifier="XSrxNd2axx"/>
      <point x="374" y="612" type="line"/>
      <point x="425" y="544" type="line"/>
    </contour>
    <contour>
      <point x="35" y="0" type="line" identifier="hvY9r8RmLr"/>
      <point x="35" y="1600" type="line" identifier="JEev70GAj6"/>
      <point x="-15" y="1550" type="line"/>
      <point x="-15" y="-50" type="line"/>
      <point x="765" y="-50" type="line"/>
      <point x="815" y="0" type="line" identifier="9QFpw7nfq7"/>
    </contour>
  </outline>
</glyph>
<glyph name="B.shadow" format="2">
  <advance width="769"/>
  <outline>
    <contour>
      <point x="422" y="930" type="line"/>
      <point x="420" y="927" type="line"/>
      <point x="438" y="927" type="line" identifier="xpxyvIzPoc"/>
      <point x="472" y="980" type="line" identifier="9lW01gQyU2"/>
      <point x="472" y="1341" type="line" identifier="Qby8aMtF2X"/>
      <point x="374" y="1341" type="line" identifier="1p5hKrurVy"/>
      <point x="374" y="1291" type="line"/>
      <point x="422" y="1291" type="line"/>
    </contour>
    <contour>
      <point x="426" y="571" type="line"/>
      <point x="426" y="259" type="line"/>
      <point x="476" y="259" type="line" identifier="xhlDJ3CjD5"/>
      <point x="476" y="621" type="line" identifier="lsRGatjQja"/>
      <point x="438" y="668" type="line" identifier="VyYlzRh5nq"/>
      <point x="374" y="668" type="line" identifier="XSrxNd2axx"/>
      <point x="374" y="618" type="line"/>
      <point x="388" y="618" type="line"/>
    </contour>
    <contour>
      <point x="35" y="0" type="line" identifier="hvY9r8RmLr"/>
      <point x="35" y="1600" type="line" identifier="JEev70GAj6"/>
      <point x="-15" y="1550" type="line"/>
      <point x="-15" y="-50" type="line"/>
      <point x="765" y="-50" type="line"/>
      <point x="815" y="0" type="line" identifier="9QFpw7nfq7"/>
    </contour>
  </outline>
</glyph>
<glyph name="C.shadow" format="2">
  <advance width="751"/>
  <outline>
    <contour>
      <point x="464" y="1341" type="line" identifier="5BjRbcud80"/>
      <point x="406" y="1341" type="line" identifier="dbOUe6OhxL"/>
      <point x="364" y="1092" type="line" identifier="sUWsr03vF4"/>
      <point x="398" y="1291" type="line"/>
      <point x="414" y="1291" type="line"/>
      <point x="414" y="894" type="line"/>
      <point x="753" y="894" type="line"/>
      <point x="803" y="944" type="line" identifier="wLqQQx7QVN"/>
      <point x="464" y="944" type="line" identifier="fNVDqwQo2o"/>
    </contour>
    <contour>
      <point x="24" y="0" type="line" identifier="7lPhzTnk2Z"/>
      <point x="24" y="1112" type="line" identifier="V1EWIdPahq"/>
      <point x="112" y="1600" type="line" identifier="lfZev3ICaC"/>
      <point x="62" y="1550" type="line"/>
      <point x="-26" y="1062" type="line"/>
      <point x="-26" y="-50" type="line"/>
      <point x="752" y="-50" type="line"/>
      <point x="802" y="0" type="line" identifier="qJVLZGnkwh"/>
    </contour>
    <contour>
      <point x="412" y="259" type="line"/>
      <point x="462" y="259" type="line" identifier="Y750RHTvDj"/>
      <point x="462" y="528" type="line" identifier="QX1V08aTu0"/>
      <point x="412" y="478" type="line"/>
    </contour>
  </outline>
</glyph>
<glyph name="C.wide" format="2">
  <advance width="844"/>
  <outline>
    <contour>
      <point x="47" y="0" type="line" identifier="7lPhzTnk2Z"/>
      <point x="826" y="0" type="line" identifier="qJVLZGnkwh"/>
      <point x="826" y="259" type="line" identifier="Y750RHTvDj"/>
      <point x="386" y="259" type="line" identifier="L2LsGnXiZ2"/>
      <point x="386" y="1092" type="line" identifier="sUWsr03vF4"/>
      <point x="428" y="1341" type="line" identifier="dbOUe6OhxL"/>
      <point x="825" y="1341" type="line" identifier="5BjRbcud80"/>
      <point x="825" y="1600" type="line" identifier="9eJelv8BOw"/>
      <point x="134" y="1600" type="line" identifier="lfZev3ICaC"/>
      <point x="47" y="1112" type="line" identifier="V1EWIdPahq"/>
    </contour>
  </outline>
</glyph>
<glyph name="C.wide.shadow" format="2">
  <advance width="774"/>
  <outline>
    <contour>
      <point x="386" y="1092" type="line" identifier="sUWsr03vF4"/>
      <point x="420" y="1291" type="line"/>
      <point x="775" y="1291" type="line"/>
      <point x="825" y="1341" type="line" identifier="5BjRbcud80"/>
      <point x="428" y="1341" type="line" identifier="dbOUe6OhxL"/>
    </contour>
    <contour>
      <point x="47" y="0" type="line" identifier="7lPhzTnk2Z"/>
      <point x="47" y="1112" type="line" identifier="V1EWIdPahq"/>
      <point x="134" y="1600" type="line" identifier="lfZev3ICaC"/>
      <point x="84" y="1550" type="line"/>
      <point x="-3" y="1062" type="line"/>
      <point x="-3" y="-50" type="line"/>
      <point x="776" y="-50" type="line"/>
      <point x="826" y="0" type="line" identifier="qJVLZGnkwh"/>
    </contour>
  </outline>
</glyph>
<glyph name="D.shadow" format="2">
  <advance width="773"/>
  <outline>
    <contour>
      <point x="429" y="369" type="line"/>
      <point x="385" y="259" type="line"/>
      <point x="415" y="259" type="line" identifier="DiLdvAK6bW"/>
      <point x="479" y="419" type="line" identifier="5OFemp6E2Y"/>
      <point x="479" y="1341" type="line" identifier="4w8cXO1HlF"/>
      <point x="374" y="1341" type="line" identifier="OGdfzPVlic"/>
      <point x="374" y="1291" type="line"/>
      <point x="429" y="1291" type="line"/>
    </contour>
    <contour>
      <point x="35" y="1600" type="line" identifier="gh4oopoKIn"/>
      <point x="-15" y="1550" type="line"/>
      <point x="-15" y="-50" type="line"/>
      <point x="621" y="-50" type="line"/>
      <point x="671" y="0" type="line" identifier="IF8msvcgce"/>
      <point x="35" y="0" type="line" identifier="hTYdJwlqIh"/>
    </contour>
  </outline>
</glyph>
<glyph name="E.shadow" format="2">
  <advance width="679"/>
  <outline>
    <contour>
      <point x="437" y="1341" type="line" identifier="eqNb2VTwYs"/>
      <point x="374" y="1341" type="line" identifier="gQ21I4SHQg"/>
      <point x="374" y="1291" type="line"/>
      <point x="387" y="1291" type="line"/>
      <point x="387" y="1040" type="line"/>
      <point x="680" y="1040" type="line"/>
      <point x="730" y="1090" type="line" identifier="e79n7CoPy1"/>
      <point x="437" y="1090" type="line" identifier="mLmcFoJA4m"/>
    </contour>
    <contour>
      <point x="35" y="0" type="line" identifier="fZynkQ4XHB"/>
      <point x="35" y="1600" type="line" identifier="HmJIcnLWfC"/>
      <point x="-15" y="1550" type="line"/>
      <point x="-15" y="-50" type="line"/>
      <point x="681" y="-50" type="line"/>
      <point x="731" y="0" type="line" identifier="FAQNpgUPxV"/>
    </contour>
    <contour>
      <point x="374" y="619" type="line"/>
      <point x="604" y="619" type="line"/>
      <point x="654" y="669" type="line" identifier="PpbsFdHAnS"/>
      <point x="374" y="669" type="line" identifier="VtD2aADJmn"/>
    </contour>
    <contour>
      <point x="388" y="259" type="line"/>
      <point x="438" y="259" type="line" identifier="5cgTYOhATF"/>
      <point x="438" y="492" type="line" identifier="gxCIuXb4el"/>
      <point x="388" y="442" type="line"/>
    </contour>
  </outline>
</glyph>
<glyph name="E.wide.shadow" format="2">
  <advance width="559"/>
  <outline>
    <contour>
      <point x="374" y="1307" type="line"/>
      <point x="560" y="1307" type="line"/>
      <point x="610" y="1357" type="line" identifier="eqNb2VTwYs"/>
      <point x="374" y="1357" type="line" identifier="gQ21I4SHQg"/>
    </contour>
    <contour>
      <point x="374" y="631" type="line"/>
      <point x="529" y="631" type="line"/>
      <point x="579" y="681" type="line" identifier="PpbsFdHAnS"/>
      <point x="374" y="681" type="line" identifier="VtD2aADJmn"/>
    </contour>
    <contour>
      <point x="35" y="0" type="line" identifier="fZynkQ4XHB"/>
      <point x="35" y="1600" type="line" identifier="HmJIcnLWfC"/>
      <point x="-15" y="1550" type="line"/>
      <point x="-15" y="-50" type="line"/>
      <point x="561" y="-50" type="line"/>
      <point x="611" y="0" type="line" identifier="FAQNpgUPxV"/>
    </contour>
  </outline>
</glyph>
<glyph name="F.shadow" format="2">
  <advance width="724"/>
  <outline>
    <contour>
      <point x="437" y="1341" type="line" identifier="4E754ovOIe"/>
      <point x="374" y="1341" type="line" identifier="ZvzwyrcwpS"/>
      <point x="374" y="1291" type="line"/>
      <point x="387" y="1291" type="line"/>
      <point x="387" y="1022" type="line"/>
      <point x="726" y="1022" type="line"/>
      <point x="776" y="1072" type="line" identifier="0tk7G4orz6"/>
      <point x="437" y="1072" type="line" identifier="vZkeT9KrKR"/>
    </contour>
    <contour>
      <point x="35" y="0" type="line" identifier="oAgH2tA6DJ"/>
      <point x="35" y="1600" type="line" identifier="TBAYuCfUFX"/>
      <point x="-15" y="1550" type="line"/>
      <point x="-15" y="-50" type="line"/>
      <point x="324" y="-50" type="line"/>
      <point x="374" y="0" type="line" identifier="zCZyMcW5ho"/>
    </contour>
    <contour>
      <point x="664" y="631" type="line" identifier="NmB7yyQuio"/>
      <point x="374" y="631" type="line" identifier="yHYqkMd7LI"/>
      <point x="374" y="581" type="line"/>
      <point x="614" y="581" type="line"/>
    </contour>
  </outline>
</glyph>
<glyph name="F.wide.shadow" format="2">
  <advance width="663"/>
  <outline>
    <contour>
      <point x="374" y="1291" type="line"/>
      <point x="665" y="1291" type="line"/>
      <point x="715" y="1341" type="line" identifier="4E754ovOIe"/>
      <point x="374" y="1341" type="line" identifier="ZvzwyrcwpS"/>
    </contour>
    <contour>
      <point x="35" y="0" type="line" identifier="oAgH2tA6DJ"/>
      <point x="35" y="1600" type="line" identifier="TBAYuCfUFX"/>
      <point x="-15" y="1550" type="line"/>
      <point x="-15" y="-50" type="line"/>
      <point x="324" y="-50" type="line"/>
      <point x="374" y="0" type="line" identifier="zCZyMcW5ho"/>
    </contour>
    <contour>
      <point x="667" y="525" type="line" identifier="NmB7yyQuio"/>
      <point x="374" y="525" type="line" identifier="yHYqkMd7LI"/>
      <point x="374" y="475" type="line"/>
      <point x="617" y="475" type="line"/>
    </contour>
  </outline>
</glyph>
<glyph name="G.shadow" format="2">
  <advance width="748"/>
  <outline>
    <contour>
      <point x="457" y="1341" type="line" identifier="5BjRbcud80"/>
      <point x="399" y="1341" type="line" identifier="dbOUe6OhxL"/>
      <point x="364" y="1133" type="line" identifier="sUWsr03vF4"/>
      <point x="391" y="1291" type="line"/>
      <point x="407" y="1291" type="line"/>
      <point x="407" y="1002" type="line"/>
      <point x="747" y="1002" type="line"/>
      <point x="797" y="1052" type="line" identifier="wLqQQx7QVN"/>
      <point x="457" y="1052" type="line" identifier="fNVDqwQo2o"/>
    </contour>
    <contour>
      <point x="364" y="592" type="line"/>
      <point x="411" y="592" type="line"/>
      <point x="411" y="259" type="line"/>
      <point x="461" y="259" type="line" identifier="Y750RHTvDj"/>
      <point x="461" y="642" type="line" identifier="4m6dHLVhZq"/>
      <point x="404" y="642" type="line" identifier="EARaY3Su65"/>
      <point x="404" y="902" type="line" identifier="qcvimxjndX"/>
      <point x="364" y="862" type="line"/>
    </contour>
    <contour>
      <point x="24" y="0" type="line" identifier="7lPhzTnk2Z"/>
      <point x="24" y="1141" type="line" identifier="V1EWIdPahq"/>
      <point x="100" y="1600" type="line" identifier="lfZev3ICaC"/>
      <point x="50" y="1550" type="line"/>
      <point x="-26" y="1091" type="line"/>
      <point x="-26" y="-50" type="line"/>
      <point x="750" y="-50" type="line"/>
      <point x="800" y="0" type="line" identifier="qJVLZGnkwh"/>
    </contour>
  </outline>
</glyph>
<glyph name="G.wide.shadow" format="2">
  <advance width="777"/>
  <outline>
    <contour>
      <point x="364" y="1133" type="line" identifier="sUWsr03vF4"/>
      <point x="388" y="1291" type="line"/>
      <point x="753" y="1291" type="line"/>
      <point x="803" y="1341" type="line" identifier="5BjRbcud80"/>
      <point x="395" y="1341" type="line" identifier="dbOUe6OhxL"/>
    </contour>
    <contour>
      <point x="364" y="605" type="line"/>
      <point x="417" y="605" type="line"/>
      <point x="417" y="259" type="line"/>
      <point x="467" y="259" type="line" identifier="Y750RHTvDj"/>
      <point x="467" y="655" type="line" identifier="4m6dHLVhZq"/>
      <point x="401" y="655" type="line" identifier="EARaY3Su65"/>
      <point x="401" y="864" type="line" identifier="qcvimxjndX"/>
      <point x="364" y="827" type="line"/>
    </contour>
    <contour>
      <point x="24" y="0" type="line" identifier="7lPhzTnk2Z"/>
      <point x="24" y="1141" type="line" identifier="V1EWIdPahq"/>
      <point x="88" y="1600" type="line" identifier="lfZev3ICaC"/>
      <point x="38" y="1550" type="line"/>
      <point x="-26" y="1091" type="line"/>
      <point x="-26" y="-50" type="line"/>
      <point x="753" y="-50" type="line"/>
      <point x="803" y="0" type="line" identifier="qJVLZGnkwh"/>
    </contour>
  </outline>
</glyph>
<glyph name="H.shadow" format="2">
  <advance width="780"/>
  <outline>
    <contour>
      <point x="475" y="670" type="line" identifier="7JgTtdb0jg"/>
      <point x="374" y="670" type="line" identifier="QjywsYY2yB"/>
      <point x="374" y="620" type="line"/>
      <point x="425" y="620" type="line"/>
      <point x="425" y="-50" type="line"/>
      <point x="764" y="-50" type="line"/>
      <point x="814" y="0" type="line" identifier="oOtn61SmRY"/>
      <point x="475" y="0" type="line" identifier="njzlIRBsoY"/>
    </contour>
    <contour>
      <point x="425" y="930" type="line"/>
      <point x="475" y="930" type="line" identifier="MTAeavIVWY"/>
      <point x="475" y="1600" type="line" identifier="db0bPhBdaU"/>
      <point x="425" y="1550" type="line"/>
    </contour>
    <contour>
      <point x="35" y="0" type="line" identifier="uqAJBjDIOT"/>
      <point x="35" y="1600" type="line" identifier="ZnCDQVdtyD"/>
      <point x="-15" y="1550" type="line"/>
      <point x="-15" y="-50" type="line"/>
      <point x="324" y="-50" type="line"/>
      <point x="374" y="0" type="line" identifier="WUaPOcaxKT"/>
    </contour>
  </outline>
</glyph>
<glyph name="I.narrow.shadow" format="2">
  <advance width="341"/>
  <outline>
    <contour>
      <point x="375" y="0" type="line" identifier="1m237t4hyw"/>
      <point x="35" y="0" type="line" identifier="S4rO5KuHiL"/>
      <point x="35" y="1600" type="line" identifier="zfocDyDTCM"/>
      <point x="-15" y="1550" type="line"/>
      <point x="-15" y="-50" type="line"/>
      <point x="325" y="-50" type="line"/>
    </contour>
  </outline>
</glyph>
<glyph name="I.shadow" format="2">
  <advance width="527"/>
  <outline>
    <contour>
      <point x="468" y="1291" type="line"/>
      <point x="529" y="1291" type="line"/>
      <point x="579" y="1341" type="line" identifier="9RiQmr3G8U"/>
      <point x="468" y="1341" type="line" identifier="v7N4yg5XNk"/>
    </contour>
    <contour>
      <point x="17" y="0" type="line" identifier="u8XZE2STzL"/>
      <point x="17" y="259" type="line" identifier="aCoxe3fSmw"/>
      <point x="-33" y="209" type="line"/>
      <point x="-33" y="-50" type="line"/>
      <point x="529" y="-50" type="line"/>
      <point x="579" y="0" type="line" identifier="1Ty0JfMohF"/>
    </contour>
    <contour>
      <point x="-33" y="1291" type="line"/>
      <point x="78" y="1291" type="line"/>
      <point x="78" y="259" type="line"/>
      <point x="128" y="259" type="line" identifier="S4rO5KuHiL"/>
      <point x="128" y="1341" type="line" identifier="zfocDyDTCM"/>
      <point x="17" y="1341" type="line" identifier="O5ZoWKLuW7"/>
      <point x="17" y="1600" type="line" identifier="PL3Zqx19x8"/>
      <point x="-33" y="1550" type="line"/>
    </contour>
  </outline>
</glyph>
<glyph name="J.shadow" format="2">
  <advance width="744"/>
  <outline>
    <contour>
      <point x="-12" y="1291" type="line"/>
      <point x="389" y="1291" type="line"/>
      <point x="389" y="259" type="line"/>
      <point x="439" y="259" type="line" identifier="zFXsE8BUYG"/>
      <point x="439" y="1341" type="line" identifier="46RrD1WET2"/>
      <point x="38" y="1341" type="line" identifier="AdYfGKx8QJ"/>
      <point x="38" y="1600" type="line" identifier="TbrXnCyMEi"/>
      <point x="-12" y="1550" type="line"/>
    </contour>
    <contour>
      <point x="71" y="0" type="line" identifier="jiO9eX9U07"/>
      <point x="17" y="731" type="line" identifier="7exNZv1XSc"/>
      <point x="-33" y="681" type="line"/>
      <point x="21" y="-50" type="line"/>
      <point x="728" y="-50" type="line"/>
      <point x="778" y="0" type="line" identifier="wgpFs1yguc"/>
    </contour>
  </outline>
</glyph>
<glyph name="K.alt.shadow" format="2">
  <advance width="815"/>
  <outline>
    <contour>
      <point x="402" y="946" type="line"/>
      <point x="448" y="946" type="line" identifier="g4YLdZEoM3"/>
      <point x="497" y="1600" type="line" identifier="08OWjR2YBJ"/>
      <point x="447" y="1550" type="line"/>
    </contour>
    <contour>
      <point x="493" y="633" type="line" identifier="DzXo67YEfw"/>
      <point x="443" y="687" type="line" identifier="ELFBWIb1vd"/>
      <point x="392" y="687" type="line" identifier="O22liaP9Qk"/>
      <point x="392" y="637" type="line"/>
      <point x="393" y="637" type="line"/>
      <point x="443" y="583" type="line"/>
      <point x="443" y="-50" type="line"/>
      <point x="782" y="-50" type="line"/>
      <point x="832" y="0" type="line" identifier="ChS7KlqGi6"/>
      <point x="493" y="0" type="line" identifier="aKpYWD78l2"/>
    </contour>
    <contour>
      <point x="392" y="0" type="line" identifier="wmNm7XZsaF"/>
      <point x="52" y="0" type="line" identifier="wdbO8kCovY"/>
      <point x="52" y="1600" type="line" identifier="3XJlWt89ad"/>
      <point x="2" y="1550" type="line"/>
      <point x="2" y="-50" type="line"/>
      <point x="342" y="-50" type="line"/>
    </contour>
  </outline>
</glyph>
<glyph name="K.narrow" format="2">
  <advance width="850"/>
  <outline>
    <contour>
      <point x="374" y="0" type="line"/>
      <point x="374" y="680" type="line"/>
      <point x="440" y="719" type="line"/>
      <point x="502" y="0" type="line"/>
      <point x="826" y="0" type="line"/>
      <point x="722" y="830" type="line"/>
      <point x="802" y="858" type="line"/>
      <point x="802" y="1600" type="line"/>
      <point x="463" y="1600" type="line"/>
      <point x="463" y="992" type="line"/>
      <point x="374" y="939" type="line"/>
      <point x="374" y="1600" type="line"/>
      <point x="35" y="1600" type="line"/>
      <point x="35" y="0" type="line"/>
    </contour>
  </outline>
</glyph>
<glyph name="K.narrow.shadow" format="2">
  <advance width="780"/>
  <outline>
    <contour>
      <point x="826" y="0" type="line"/>
      <point x="502" y="0" type="line"/>
      <point x="440" y="719" type="line"/>
      <point x="374" y="680" type="line"/>
      <point x="374" y="660" type="line"/>
      <point x="390" y="669" type="line"/>
      <point x="452" y="-50" type="line"/>
      <point x="776" y="-50" type="line"/>
      <point x="826" y="0" type="line"/>
      <point x="726" y="799" type="line"/>
      <point x="752" y="808" type="line"/>
      <point x="802" y="858" type="line"/>
      <point x="722" y="830" type="line"/>
    </contour>
    <contour>
      <point x="463" y="992" type="line"/>
      <point x="463" y="1600" type="line"/>
      <point x="413" y="1550" type="line"/>
      <point x="413" y="962" type="line"/>
      <point x="374" y="939" type="line"/>
      <point x="413" y="962" type="line"/>
      <point x="413" y="962" type="line"/>
    </contour>
    <contour>
      <point x="374" y="0" type="line"/>
      <point x="35" y="0" type="line"/>
      <point x="35" y="1600" type="line"/>
      <point x="-15" y="1550" type="line"/>
      <point x="-15" y="-50" type="line"/>
      <point x="324" y="-50" type="line"/>
    </contour>
  </outline>
</glyph>
<glyph name="K.shadow" format="2">
  <advance width="765"/>
  <outline>
    <contour>
      <point x="416" y="930" type="line"/>
      <point x="419" y="930" type="line" identifier="g4YLdZEoM3"/>
      <point x="466" y="973" type="line" identifier="F62GU90G6q"/>
      <point x="466" y="1600" type="line" identifier="08OWjR2YBJ"/>
      <point x="416" y="1550" type="line"/>
    </contour>
    <contour>
      <point x="470" y="624" type="line" identifier="DzXo67YEfw"/>
      <point x="419" y="670" type="line" identifier="ELFBWIb1vd"/>
      <point x="374" y="670" type="line" identifier="O22liaP9Qk"/>
      <point x="374" y="615" type="line"/>
      <point x="420" y="574" type="line"/>
      <point x="420" y="-50" type="line"/>
      <point x="759" y="-50" type="line"/>
      <point x="809" y="0" type="line" identifier="ChS7KlqGi6"/>
      <point x="470" y="0" type="line" identifier="aKpYWD78l2"/>
    </contour>
    <contour>
      <point x="374" y="0" type="line" identifier="wmNm7XZsaF"/>
      <point x="35" y="0" type="line" identifier="wdbO8kCovY"/>
      <point x="35" y="1600" type="line" identifier="3XJlWt89ad"/>
      <point x="-15" y="1550" type="line"/>
      <point x="-15" y="-50" type="line"/>
      <point x="324" y="-50" type="line"/>
    </contour>
  </outline>
</glyph>
<glyph name="L.shadow" format="2">
  <advance width="730"/>
  <outline>
    <contour>
      <point x="35" y="0" type="line" identifier="XkJNfQlnnt"/>
      <point x="35" y="1600" type="line" identifier="XFf4mMUzYo"/>
      <point x="-15" y="1550" type="line"/>
      <point x="-15" y="-50" type="line"/>
      <point x="732" y="-50" type="line"/>
      <point x="782" y="0" type="line" identifier="82EXZEgt46"/>
    </contour>
    <contour>
      <point x="392" y="259" type="line"/>
      <point x="442" y="259" type="line" identifier="cqpSxwFiM3"/>
      <point x="442" y="601" type="line" identifier="t7Q9RRLHt8"/>
      <point x="392" y="551" type="line"/>
    </contour>
  </outline>
</glyph>
<glyph name="L.wide.shadow" format="2">
  <advance width="660"/>
  <outline>
    <contour>
      <point x="45" y="0" type="line" identifier="XkJNfQlnnt"/>
      <point x="45" y="1600" type="line" identifier="XFf4mMUzYo"/>
      <point x="-5" y="1550" type="line"/>
      <point x="-5" y="-50" type="line"/>
      <point x="662" y="-50" type="line"/>
      <point x="712" y="0" type="line" identifier="82EXZEgt46"/>
    </contour>
  </outline>
</glyph>
<glyph name="M.narrow.shadow" format="2">
  <advance width="1175"/>
  <outline>
    <contour>
      <point x="881" y="0" type="line" smooth="yes" identifier="12Pyby1xY2"/>
      <point x="881" y="1341" type="line" identifier="iqeTRv7HXg"/>
      <point x="798" y="1341" type="line" identifier="GlWB6PG54Z"/>
      <point x="798" y="1291" type="line"/>
      <point x="831" y="1291" type="line"/>
      <point x="831" y="-50" type="line"/>
      <point x="1171" y="-50" type="line"/>
      <point x="1221" y="0" type="line" smooth="yes" identifier="5LJg4ajoG6"/>
    </contour>
    <contour>
      <point x="400" y="1291" type="line"/>
      <point x="374" y="1165" type="line" smooth="yes" identifier="WWvGwSpq0g"/>
      <point x="400" y="1291" type="line"/>
    </contour>
    <contour>
      <point x="-15" y="1111" type="line"/>
      <point x="-15" y="-50" type="line"/>
      <point x="324" y="-50" type="line"/>
      <point x="374" y="0" type="line" identifier="JfSFAkWGZC"/>
      <point x="35" y="0" type="line" smooth="yes" identifier="RTOJW56qXy"/>
      <point x="35" y="1161" type="line" smooth="yes" identifier="7g7f8Wu7K4"/>
      <point x="141" y="1600" type="line" smooth="yes" identifier="R4lklfJsHA"/>
      <point x="91" y="1550" type="line"/>
    </contour>
    <contour>
      <point x="459" y="1341" type="line" identifier="Ljn2lpvpG8"/>
      <point x="411" y="1341" type="line" smooth="yes" identifier="oee4nqI8Wl"/>
      <point x="400" y="1291" type="line"/>
      <point x="409" y="1291" type="line"/>
      <point x="409" y="62" type="line"/>
      <point x="748" y="62" type="line"/>
      <point x="798" y="112" type="line"/>
      <point x="459" y="112" type="line" smooth="yes"/>
    </contour>
  </outline>
</glyph>
<glyph name="M.shadow" format="2">
  <advance width="1322"/>
  <outline>
    <contour>
      <point x="-15" y="-50" type="line"/>
      <point x="285" y="-50" type="line"/>
      <point x="335" y="0" type="line"/>
      <point x="335" y="866" type="line"/>
      <point x="365" y="158" type="line"/>
      <point x="926" y="158" type="line"/>
      <point x="976" y="208" type="line" identifier="spdoeeCFft"/>
      <point x="1005" y="893" type="line"/>
      <point x="1005" y="-50" type="line"/>
      <point x="1306" y="-50" type="line"/>
      <point x="1356" y="0" type="line"/>
      <point x="1356" y="1600" type="line"/>
      <point x="743" y="1600" type="line"/>
      <point x="741" y="1550" type="line"/>
      <point x="741" y="1550" type="line"/>
      <point x="743" y="1600" type="line"/>
      <point x="693" y="1550" type="line"/>
      <point x="671" y="877" type="line"/>
      <point x="648" y="1600" type="line"/>
      <point x="35" y="1600" type="line"/>
      <point x="-15" y="1550" type="line"/>
    </contour>
  </outline>
</glyph>
<glyph name="N.narrow.shadow" format="2">
  <advance width="773"/>
  <outline>
    <contour>
      <point x="468" y="1285" type="line"/>
      <point x="432" y="1285" type="line"/>
      <point x="374" y="1033" type="line"/>
      <point x="418" y="1224" type="line"/>
      <point x="418" y="-50" type="line"/>
      <point x="757" y="-50" type="line"/>
      <point x="807" y="0" type="line" smooth="yes"/>
      <point x="468" y="0" type="line" smooth="yes"/>
    </contour>
    <contour>
      <point x="379" y="1459" type="line"/>
      <point x="426" y="1600" type="line" smooth="yes"/>
      <point x="376" y="1550" type="line"/>
      <point x="372" y="1538" type="line"/>
      <point x="372" y="1459" type="line"/>
    </contour>
    <contour>
      <point x="35" y="0" type="line" smooth="yes"/>
      <point x="35" y="1600" type="line"/>
      <point x="-15" y="1550" type="line"/>
      <point x="-15" y="-50" type="line"/>
      <point x="324" y="-50" type="line"/>
      <point x="374" y="0" type="line"/>
    </contour>
  </outline>
</glyph>
<glyph name="N.shadow" format="2">
  <advance width="972"/>
  <outline>
    <contour>
      <point x="361" y="1341" type="line" identifier="MEnBDHq6zU"/>
      <point x="343" y="1341" type="line" identifier="wfBbYd10Pm"/>
      <point x="343" y="588" type="line"/>
      <point x="372" y="-50" type="line"/>
      <point x="956" y="-50" type="line"/>
      <point x="1006" y="0" type="line" identifier="uKfuudIUvA"/>
      <point x="422" y="0" type="line" identifier="3Nbopwznvn"/>
    </contour>
    <contour>
      <point x="698" y="259" type="line" identifier="VILP20cFmq"/>
      <point x="698" y="1600" type="line" identifier="MUSJPjCIXg"/>
      <point x="648" y="1550" type="line"/>
      <point x="648" y="839" type="line"/>
      <point x="606" y="1600" type="line" identifier="LL64NQ6WBE"/>
      <point x="680" y="259" type="line" identifier="z5b04GDwRN"/>
    </contour>
    <contour>
      <point x="35" y="0" type="line" identifier="CkwYPPvJLv"/>
      <point x="35" y="1600" type="line" identifier="dzUaaP1sjt"/>
      <point x="-15" y="1550" type="line"/>
      <point x="-15" y="-50" type="line"/>
      <point x="293" y="-50" type="line"/>
      <point x="343" y="0" type="line" identifier="oHTJsN7drZ"/>
    </contour>
  </outline>
</glyph>
<glyph name="N.wide" format="2">
  <advance width="1070"/>
  <outline>
    <contour>
      <point x="35" y="0" type="line" identifier="CkwYPPvJLv"/>
      <point x="374" y="0" type="line" identifier="oHTJsN7drZ"/>
      <point x="374" y="1245" type="line" identifier="wfBbYd10Pm"/>
      <point x="387" y="1245" type="line" identifier="MEnBDHq6zU"/>
      <point x="693" y="0" type="line" identifier="3Nbopwznvn"/>
      <point x="1035" y="0" type="line" identifier="uKfuudIUvA"/>
      <point x="1035" y="1600" type="line" identifier="XRdLFXiM4t"/>
      <point x="695" y="1600" type="line" identifier="MUSJPjCIXg"/>
      <point x="695" y="377" type="line" identifier="VILP20cFmq"/>
      <point x="688" y="377" type="line" identifier="z5b04GDwRN"/>
      <point x="396" y="1600" type="line" identifier="LL64NQ6WBE"/>
      <point x="35" y="1600" type="line" identifier="dzUaaP1sjt"/>
    </contour>
  </outline>
</glyph>
<glyph name="N.wide.shadow" format="2">
  <advance width="1001"/>
  <outline>
    <contour>
      <point x="396" y="1600" type="line" identifier="LL64NQ6WBE"/>
      <point x="645" y="557" type="line"/>
      <point x="645" y="557" type="line"/>
    </contour>
    <contour>
      <point x="387" y="1245" type="line" identifier="MEnBDHq6zU"/>
      <point x="374" y="1245" type="line" identifier="wfBbYd10Pm"/>
      <point x="374" y="1044" type="line"/>
      <point x="643" y="-50" type="line"/>
      <point x="985" y="-50" type="line"/>
      <point x="1035" y="0" type="line" identifier="uKfuudIUvA"/>
      <point x="693" y="0" type="line" identifier="3Nbopwznvn"/>
    </contour>
    <contour>
      <point x="688" y="377" type="line" identifier="z5b04GDwRN"/>
      <point x="695" y="377" type="line" identifier="VILP20cFmq"/>
      <point x="695" y="1600" type="line" identifier="MUSJPjCIXg"/>
      <point x="645" y="1550" type="line"/>
      <point x="645" y="557" type="line"/>
    </contour>
    <contour>
      <point x="35" y="0" type="line" identifier="CkwYPPvJLv"/>
      <point x="35" y="1600" type="line" identifier="dzUaaP1sjt"/>
      <point x="-15" y="1550" type="line"/>
      <point x="-15" y="-50" type="line"/>
      <point x="324" y="-50" type="line"/>
      <point x="374" y="0" type="line" identifier="oHTJsN7drZ"/>
    </contour>
  </outline>
</glyph>
<glyph name="O.shadow" format="2">
  <advance width="762"/>
  <outline>
    <contour>
      <point x="467" y="367" type="line" identifier="SnrsQD5TLy"/>
      <point x="467" y="1355" type="line" identifier="g70r2r6DwY"/>
      <point x="395" y="1355" type="line" identifier="qXlVxK5ShE"/>
      <point x="382" y="1305" type="line"/>
      <point x="417" y="1305" type="line"/>
      <point x="417" y="317" type="line"/>
      <point x="400" y="250" type="line"/>
      <point x="437" y="250" type="line" identifier="jjd5iRDXWT"/>
    </contour>
    <contour>
      <point x="382" y="1305" type="line"/>
      <point x="364" y="1235" type="line" identifier="vdfGLkskOQ"/>
      <point x="382" y="1305" type="line"/>
    </contour>
    <contour>
      <point x="-26" y="1196" type="line"/>
      <point x="-26" y="-50" type="line"/>
      <point x="669" y="-50" type="line"/>
      <point x="719" y="0" type="line" identifier="dfgNHTgBfR"/>
      <point x="24" y="0" type="line" identifier="U6WibAQAUl"/>
      <point x="24" y="1246" type="line" identifier="kbL68Qh2zr"/>
      <point x="112" y="1600" type="line" identifier="a4Ql951bxG"/>
      <point x="62" y="1550" type="line"/>
    </contour>
  </outline>
</glyph>
<glyph name="P.shadow" format="2">
  <advance width="758"/>
  <outline>
    <contour>
      <point x="374" y="550" type="line"/>
      <point x="760" y="637" type="line"/>
      <point x="810" y="687" type="line" identifier="Tt6D8zYZmU"/>
      <point x="374" y="589" type="line" identifier="hIFVovVRwe"/>
    </contour>
    <contour>
      <point x="374" y="856" type="line" identifier="PIBVN1PGv1"/>
      <point x="471" y="882" type="line" identifier="1WCnzth1GX"/>
      <point x="471" y="1341" type="line" identifier="2c4LCF1E1R"/>
      <point x="374" y="1341" type="line" identifier="IZIZQr2gYJ"/>
      <point x="374" y="1291" type="line"/>
      <point x="421" y="1291" type="line"/>
      <point x="421" y="869" type="line"/>
    </contour>
    <contour>
      <point x="35" y="0" type="line" identifier="EG08jqU5fb"/>
      <point x="35" y="1600" type="line" identifier="eETO5GBD5v"/>
      <point x="-15" y="1550" type="line"/>
      <point x="-15" y="-50" type="line"/>
      <point x="324" y="-50" type="line"/>
      <point x="374" y="0" type="line" identifier="osRzIFK2Cu"/>
    </contour>
  </outline>
</glyph>
<glyph name="P.wide.shadow" format="2">
  <advance width="758"/>
  <outline>
    <contour>
      <point x="810" y="589" type="line" identifier="Tt6D8zYZmU"/>
      <point x="374" y="589" type="line" identifier="hIFVovVRwe"/>
      <point x="374" y="539" type="line"/>
      <point x="760" y="539" type="line"/>
    </contour>
    <contour>
      <point x="421" y="856" type="line"/>
      <point x="471" y="856" type="line" identifier="1WCnzth1GX"/>
      <point x="471" y="1341" type="line" identifier="2c4LCF1E1R"/>
      <point x="374" y="1341" type="line" identifier="IZIZQr2gYJ"/>
      <point x="374" y="1291" type="line"/>
      <point x="421" y="1291" type="line"/>
    </contour>
    <contour>
      <point x="35" y="0" type="line" identifier="EG08jqU5fb"/>
      <point x="35" y="1600" type="line" identifier="eETO5GBD5v"/>
      <point x="-15" y="1550" type="line"/>
      <point x="-15" y="-50" type="line"/>
      <point x="324" y="-50" type="line"/>
      <point x="374" y="0" type="line" identifier="osRzIFK2Cu"/>
    </contour>
  </outline>
</glyph>
<glyph name="Q.shadow" format="2">
  <advance width="772"/>
  <outline>
    <contour>
      <point x="806" y="0" type="line" identifier="dfgNHTgBfR"/>
      <point x="538" y="0" type="line"/>
      <point x="538" y="1" type="line"/>
      <point x="299" y="1" type="line"/>
      <point x="299" y="0" type="line"/>
      <point x="538" y="0" type="line"/>
      <point x="538" y="-50" type="line"/>
      <point x="756" y="-50" type="line"/>
    </contour>
    <contour>
      <point x="467" y="259" type="line" identifier="jjd5iRDXWT"/>
      <point x="467" y="1341" type="line" identifier="g70r2r6DwY"/>
      <point x="393" y="1341" type="line" identifier="qXlVxK5ShE"/>
      <point x="364" y="1168" type="line" identifier="vdfGLkskOQ"/>
      <point x="385" y="1291" type="line"/>
      <point x="417" y="1291" type="line"/>
      <point x="417" y="259" type="line"/>
    </contour>
    <contour>
      <point x="299" y="-199" type="line"/>
      <point x="299" y="0" type="line"/>
      <point x="24" y="0" type="line" identifier="U6WibAQAUl"/>
      <point x="24" y="1167" type="line" identifier="kbL68Qh2zr"/>
      <point x="108" y="1600" type="line" identifier="a4Ql951bxG"/>
      <point x="58" y="1550" type="line"/>
      <point x="-26" y="1117" type="line"/>
      <point x="-26" y="-50" type="line"/>
      <point x="249" y="-50" type="line"/>
      <point x="249" y="-249" type="line"/>
      <point x="488" y="-249" type="line"/>
      <point x="538" y="-199" type="line"/>
    </contour>
  </outline>
</glyph>
<glyph name="R.shadow" format="2">
  <advance width="772"/>
  <outline>
    <contour>
      <point x="422" y="793" type="line"/>
      <point x="439" y="793" type="line"/>
      <point x="472" y="796" type="line"/>
      <point x="472" y="1341" type="line"/>
      <point x="374" y="1341" type="line"/>
      <point x="374" y="1291" type="line"/>
      <point x="422" y="1291" type="line"/>
    </contour>
    <contour>
      <point x="816" y="0" type="line"/>
      <point x="489" y="0" type="line"/>
      <point x="446" y="522" type="line"/>
      <point x="374" y="522" type="line"/>
      <point x="374" y="472" type="line"/>
      <point x="396" y="472" type="line"/>
      <point x="439" y="-50" type="line"/>
      <point x="766" y="-50" type="line"/>
    </contour>
    <contour>
      <point x="-15" y="-50" type="line"/>
      <point x="324" y="-50" type="line"/>
      <point x="374" y="0" type="line"/>
      <point x="35" y="0" type="line"/>
      <point x="35" y="1600" type="line"/>
      <point x="-15" y="1550" type="line"/>
    </contour>
  </outline>
</glyph>
<glyph name="S.alt.shadow" format="2">
  <advance width="758"/>
  <outline>
    <contour>
      <point x="437" y="1341" type="line" identifier="3ZUkG35meB"/>
      <point x="375" y="1341" type="line"/>
      <point x="366" y="1291" type="line"/>
      <point x="387" y="1291" type="line"/>
      <point x="387" y="1132" type="line"/>
      <point x="726" y="1132" type="line"/>
      <point x="776" y="1182" type="line" identifier="9KDcrfQ5Ui"/>
      <point x="437" y="1182" type="line" identifier="DTOJhFIl15"/>
    </contour>
    <contour>
      <point x="366" y="1291" type="line"/>
      <point x="342" y="1153" type="line"/>
      <point x="366" y="1291" type="line"/>
    </contour>
    <contour>
      <point x="-6" y="1126" type="line"/>
      <point x="-6" y="637" type="line"/>
      <point x="387" y="637" type="line"/>
      <point x="387" y="259" type="line"/>
      <point x="437" y="259" type="line" identifier="9kdl9SYsn8"/>
      <point x="437" y="687" type="line" identifier="yiV6OCBLHg"/>
      <point x="44" y="687" type="line" identifier="3sQ8t8BZ6b"/>
      <point x="44" y="1176" type="line"/>
      <point x="135" y="1600" type="line"/>
      <point x="85" y="1550" type="line"/>
    </contour>
    <contour>
      <point x="46" y="0" type="line" identifier="09VlJ0BjUX"/>
      <point x="46" y="416" type="line" identifier="ho4DrS0rdW"/>
      <point x="-4" y="366" type="line"/>
      <point x="-4" y="-50" type="line"/>
      <point x="726" y="-50" type="line"/>
      <point x="776" y="0" type="line" identifier="EagWihqFM8"/>
    </contour>
  </outline>
</glyph>
<glyph name="S.shadow" format="2">
  <advance width="709"/>
  <outline>
    <contour>
      <point x="421" y="1341" type="line" identifier="3ZUkG35meB"/>
      <point x="387" y="1341" type="line"/>
      <point x="371" y="1250" type="line"/>
      <point x="371" y="1013" type="line"/>
      <point x="711" y="1013" type="line"/>
      <point x="761" y="1063" type="line" identifier="9KDcrfQ5Ui"/>
      <point x="421" y="1063" type="line" identifier="DTOJhFIl15"/>
    </contour>
    <contour>
      <point x="371" y="1250" type="line"/>
      <point x="354" y="1153" type="line"/>
      <point x="371" y="1250" type="line"/>
    </contour>
    <contour>
      <point x="-32" y="1126" type="line"/>
      <point x="-32" y="612" type="line"/>
      <point x="371" y="612" type="line"/>
      <point x="371" y="259" type="line"/>
      <point x="421" y="259" type="line" identifier="9kdl9SYsn8"/>
      <point x="421" y="662" type="line" identifier="yiV6OCBLHg"/>
      <point x="18" y="662" type="line" identifier="3sQ8t8BZ6b"/>
      <point x="18" y="1176" type="line"/>
      <point x="109" y="1600" type="line"/>
      <point x="59" y="1550" type="line"/>
    </contour>
    <contour>
      <point x="19" y="0" type="line" identifier="09VlJ0BjUX"/>
      <point x="19" y="510" type="line" identifier="ho4DrS0rdW"/>
      <point x="-31" y="460" type="line"/>
      <point x="-31" y="-50" type="line"/>
      <point x="710" y="-50" type="line"/>
      <point x="760" y="0" type="line" identifier="EagWihqFM8"/>
    </contour>
  </outline>
</glyph>
<glyph name="S.wide.shadow" format="2">
  <advance width="677"/>
  <outline>
    <contour>
      <point x="342" y="1291" type="line"/>
      <point x="318" y="1153" type="line"/>
      <point x="342" y="1291" type="line"/>
      <point x="679" y="1291" type="line"/>
      <point x="729" y="1341" type="line" identifier="3ZUkG35meB"/>
      <point x="351" y="1341" type="line"/>
      <point x="342" y="1291" type="line"/>
    </contour>
    <contour>
      <point x="19" y="0" type="line" identifier="09VlJ0BjUX"/>
      <point x="19" y="259" type="line" identifier="yZDWuX8LLe"/>
      <point x="-31" y="209" type="line"/>
      <point x="-31" y="-50" type="line"/>
      <point x="679" y="-50" type="line"/>
      <point x="729" y="0" type="line" identifier="EagWihqFM8"/>
    </contour>
    <contour>
      <point x="-30" y="1126" type="line"/>
      <point x="-30" y="637" type="line"/>
      <point x="339" y="637" type="line"/>
      <point x="339" y="259" type="line"/>
      <point x="389" y="259" type="line" identifier="9kdl9SYsn8"/>
      <point x="389" y="687" type="line" identifier="yiV6OCBLHg"/>
      <point x="20" y="687" type="line" identifier="3sQ8t8BZ6b"/>
      <point x="20" y="1176" type="line"/>
      <point x="111" y="1600" type="line"/>
      <point x="61" y="1550" type="line"/>
    </contour>
  </outline>
</glyph>
<glyph name="T.shadow" format="2">
  <advance width="636"/>
  <outline>
    <contour>
      <point x="688" y="1341" type="line"/>
      <point x="522" y="1341" type="line" identifier="zTICSjBOe7"/>
      <point x="522" y="1291" type="line"/>
      <point x="638" y="1291" type="line"/>
    </contour>
    <contour>
      <point x="183" y="0" type="line"/>
      <point x="183" y="1341" type="line" identifier="1xm0mHc9eh"/>
      <point x="17" y="1341" type="line"/>
      <point x="17" y="1600" type="line" identifier="8oS81nStJX"/>
      <point x="-33" y="1550" type="line"/>
      <point x="-33" y="1291" type="line"/>
      <point x="133" y="1291" type="line"/>
      <point x="133" y="-50" type="line"/>
      <point x="472" y="-50" type="line"/>
      <point x="522" y="0" type="line"/>
    </contour>
  </outline>
</glyph>
<glyph name="U.shadow" format="2">
  <advance width="762"/>
  <outline>
    <contour>
      <point x="24" y="422" type="line" smooth="yes"/>
      <point x="24" y="1600" type="line" smooth="yes"/>
      <point x="-26" y="1550" type="line"/>
      <point x="-26" y="372" type="line"/>
      <point x="102" y="-50" type="line"/>
      <point x="746" y="-50" type="line"/>
      <point x="796" y="0" type="line" smooth="yes"/>
      <point x="152" y="0" type="line" smooth="yes"/>
    </contour>
    <contour>
      <point x="457" y="1600" type="line" smooth="yes"/>
      <point x="407" y="1550" type="line"/>
      <point x="407" y="259" type="line"/>
      <point x="457" y="259" type="line"/>
    </contour>
  </outline>
</glyph>
<glyph name="W.shadow" format="2">
  <advance width="1185"/>
  <outline>
    <contour>
      <point x="841" y="390" type="line"/>
      <point x="814" y="259" type="line"/>
      <point x="854" y="259" type="line" smooth="yes" identifier="oee4nqI8Wl"/>
      <point x="891" y="440" type="line" smooth="yes" identifier="WWvGwSpq0g"/>
      <point x="891" y="1600" type="line" identifier="JfSFAkWGZC"/>
      <point x="841" y="1550" type="line"/>
    </contour>
    <contour>
      <point x="405" y="259" type="line" identifier="GlWB6PG54Z"/>
      <point x="468" y="473" type="line"/>
      <point x="468" y="1432" type="line"/>
      <point x="418" y="1382" type="line"/>
      <point x="418" y="423" type="line"/>
      <point x="374" y="274" type="line"/>
      <point x="374" y="259" type="line" identifier="iqeTRv7HXg"/>
    </contour>
    <contour>
      <point x="-15" y="-50" type="line"/>
      <point x="498" y="-50" type="line"/>
      <point x="545" y="-3" type="line"/>
      <point x="545" y="-50" type="line"/>
      <point x="1074" y="-50" type="line"/>
      <point x="1124" y="0" type="line" smooth="yes" identifier="R4lklfJsHA"/>
      <point x="595" y="0" type="line" smooth="yes" identifier="Pkl7cZ37MU"/>
      <point x="595" y="175" type="line"/>
      <point x="588" y="175" type="line"/>
      <point x="548" y="0" type="line" smooth="yes" identifier="rCeQLyjlsN"/>
      <point x="35" y="0" type="line" smooth="yes" identifier="ZqTZqAY3uY"/>
      <point x="35" y="1600" type="line" smooth="yes" identifier="5LJg4ajoG6"/>
      <point x="-15" y="1550" type="line"/>
    </contour>
  </outline>
</glyph>
<glyph name="X.shadow" format="2">
  <advance width="771"/>
  <outline>
    <contour>
      <point x="424" y="930" type="line"/>
      <point x="428" y="930" type="line"/>
      <point x="474" y="973" type="line"/>
      <point x="474" y="1600" type="line"/>
      <point x="424" y="1550" type="line"/>
    </contour>
    <contour>
      <point x="428" y="670" type="line"/>
      <point x="414" y="670" type="line"/>
      <point x="364" y="624" type="line"/>
      <point x="364" y="620" type="line"/>
      <point x="378" y="620" type="line"/>
      <point x="428" y="574" type="line"/>
      <point x="428" y="-50" type="line"/>
      <point x="767" y="-50" type="line"/>
      <point x="817" y="0" type="line"/>
      <point x="478" y="0" type="line"/>
      <point x="478" y="624" type="line"/>
    </contour>
    <contour>
      <point x="-22" y="871" type="line"/>
      <point x="63" y="751" type="line"/>
      <point x="63" y="749" type="line"/>
      <point x="-26" y="626" type="line"/>
      <point x="-26" y="-50" type="line"/>
      <point x="314" y="-50" type="line"/>
      <point x="364" y="0" type="line"/>
      <point x="24" y="0" type="line"/>
      <point x="24" y="676" type="line"/>
      <point x="113" y="799" type="line"/>
      <point x="113" y="801" type="line"/>
      <point x="28" y="921" type="line"/>
      <point x="28" y="1600" type="line"/>
      <point x="-22" y="1550" type="line"/>
    </contour>
  </outline>
</glyph>
<glyph name="Y.alt.shadow" format="2">
  <advance width="755"/>
  <outline>
    <contour>
      <point x="-33" y="620" type="line"/>
      <point x="399" y="620" type="line"/>
      <point x="399" y="259" type="line"/>
      <point x="449" y="259" type="line"/>
      <point x="449" y="670" type="line" identifier="7JgTtdb0jg"/>
      <point x="17" y="670" type="line" identifier="uqAJBjDIOT"/>
      <point x="17" y="1600" type="line" identifier="ZnCDQVdtyD"/>
      <point x="-33" y="1550" type="line"/>
    </contour>
    <contour>
      <point x="399" y="930" type="line"/>
      <point x="449" y="930" type="line" identifier="MTAeavIVWY"/>
      <point x="449" y="1600" type="line" identifier="db0bPhBdaU"/>
      <point x="399" y="1550" type="line"/>
    </contour>
    <contour>
      <point x="33" y="0" type="line"/>
      <point x="33" y="534" type="line"/>
      <point x="-17" y="484" type="line"/>
      <point x="-17" y="-50" type="line"/>
      <point x="739" y="-50" type="line"/>
      <point x="789" y="0" type="line" identifier="oOtn61SmRY"/>
    </contour>
  </outline>
</glyph>
<glyph name="Y.shadow" format="2">
  <advance width="743"/>
  <outline>
    <contour>
      <point x="576" y="610" type="line"/>
      <point x="745" y="693" type="line"/>
      <point x="795" y="743" type="line" identifier="YbKEFhFR3q"/>
      <point x="576" y="636" type="line" identifier="rvzWMWl6O1"/>
    </contour>
    <contour>
      <point x="406" y="922" type="line" identifier="u7HFbTQwMo"/>
      <point x="408" y="922" type="line" identifier="9ncbEH2hEb"/>
      <point x="456" y="957" type="line" identifier="Jw55i2s2Mm"/>
      <point x="456" y="1600" type="line" identifier="spI4xe8t4f"/>
      <point x="406" y="1550" type="line"/>
    </contour>
    <contour>
      <point x="238" y="0" type="line" identifier="XKjckKJ7m9"/>
      <point x="238" y="636" type="line" identifier="3Kveia3O9h"/>
      <point x="17" y="743" type="line" identifier="k3vH9oxqcN"/>
      <point x="17" y="1600" type="line" identifier="fJXhpKV79E"/>
      <point x="-33" y="1550" type="line"/>
      <point x="-33" y="693" type="line"/>
      <point x="188" y="586" type="line"/>
      <point x="188" y="-50" type="line"/>
      <point x="526" y="-50" type="line"/>
      <point x="576" y="0" type="line" identifier="WihjL321cU"/>
    </contour>
  </outline>
</glyph>
<glyph name="Z.shadow" format="2">
  <advance width="752"/>
  <outline>
    <contour>
      <point x="-29" y="1087" type="line"/>
      <point x="275" y="1087" type="line"/>
      <point x="325" y="1137" type="line"/>
      <point x="21" y="1137" type="line" identifier="LQ9fBsTy9K"/>
      <point x="21" y="1600" type="line" identifier="svlFvrau4c"/>
      <point x="-29" y="1550" type="line"/>
    </contour>
    <contour>
      <point x="17" y="0" type="line"/>
      <point x="17" y="435" type="line" identifier="teVKnpBcVb"/>
      <point x="463" y="1267" type="line"/>
      <point x="463" y="1341" type="line"/>
      <point x="325" y="1341" type="line"/>
      <point x="325" y="1291" type="line"/>
      <point x="413" y="1291" type="line"/>
      <point x="413" y="1217" type="line"/>
      <point x="-33" y="385" type="line"/>
      <point x="-33" y="-50" type="line"/>
      <point x="747" y="-50" type="line"/>
      <point x="797" y="0" type="line" identifier="pzdvPTirLJ"/>
    </contour>
    <contour>
      <point x="408" y="259" type="line"/>
      <point x="458" y="259" type="line"/>
      <point x="458" y="500" type="line"/>
      <point x="408" y="450" type="line"/>
    </contour>
  </outline>
</glyph>
<glyph name="Z.wide.shadow" format="2">
  <advance width="752"/>
  <outline>
    <contour>
      <point x="17" y="0" type="line"/>
      <point x="17" y="435" type="line" identifier="teVKnpBcVb"/>
      <point x="460" y="1318" type="line"/>
      <point x="460" y="1341" type="line"/>
      <point x="21" y="1341" type="line"/>
      <point x="21" y="1600" type="line" identifier="svlFvrau4c"/>
      <point x="-29" y="1550" type="line"/>
      <point x="-29" y="1291" type="line"/>
      <point x="410" y="1291" type="line"/>
      <point x="410" y="1268" type="line"/>
      <point x="-33" y="385" type="line"/>
      <point x="-33" y="-50" type="line"/>
      <point x="747" y="-50" type="line"/>
      <point x="797" y="0" type="line" identifier="pzdvPTirLJ"/>
    </contour>
  </outline>
</glyph>
<glyph name="comma.shadow" format="2">
  <advance width="193"/>
  <outline>
    <contour>
      <point x="142" y="-196" type="line"/>
      <point x="91" y="-196" type="line"/>
      <point x="91" y="0" type="line"/>
      <point x="-100" y="0" type="line"/>
      <point x="-100" y="191" type="line"/>
      <point x="-61" y="248" type="line"/>
      <point x="-111" y="198" type="line"/>
      <point x="-150" y="141" type="line"/>
      <point x="-150" y="-50" type="line"/>
      <point x="41" y="-50" type="line"/>
      <point x="41" y="-246" type="line"/>
      <point x="92" y="-246" type="line"/>
    </contour>
  </outline>
</glyph>
<glyph name="eight.shadow" format="2">
  <advance width="771"/>
  <outline>
    <contour>
      <point x="435" y="670" type="line"/>
      <point x="406" y="670" type="line"/>
      <point x="369" y="620" type="line"/>
      <point x="385" y="620" type="line"/>
      <point x="428" y="563" type="line"/>
      <point x="428" y="259" type="line"/>
      <point x="478" y="259" type="line"/>
      <point x="478" y="613" type="line"/>
    </contour>
    <contour>
      <point x="369" y="620" type="line"/>
      <point x="364" y="613" type="line"/>
      <point x="369" y="620" type="line"/>
    </contour>
    <contour>
      <point x="424" y="934" type="line"/>
      <point x="421" y="930" type="line"/>
      <point x="435" y="930" type="line"/>
      <point x="474" y="984" type="line"/>
      <point x="474" y="1341" type="line"/>
      <point x="367" y="1341" type="line"/>
      <point x="367" y="1291" type="line"/>
      <point x="424" y="1291" type="line"/>
    </contour>
    <contour>
      <point x="-22" y="871" type="line"/>
      <point x="53" y="751" type="line"/>
      <point x="53" y="749" type="line"/>
      <point x="-26" y="626" type="line"/>
      <point x="-26" y="-50" type="line"/>
      <point x="767" y="-50" type="line"/>
      <point x="817" y="0" type="line"/>
      <point x="24" y="0" type="line"/>
      <point x="24" y="676" type="line"/>
      <point x="103" y="799" type="line"/>
      <point x="103" y="801" type="line"/>
      <point x="28" y="921" type="line"/>
      <point x="28" y="1600" type="line"/>
      <point x="-22" y="1550" type="line"/>
    </contour>
  </outline>
</glyph>
<glyph name="five.shadow" format="2">
  <advance width="731"/>
  <outline>
    <contour>
      <point x="357" y="1291" type="line"/>
      <point x="733" y="1291" type="line"/>
      <point x="783" y="1341" type="line" identifier="3ZUkG35meB"/>
      <point x="357" y="1341" type="line" identifier="BcuLfvaQKC"/>
    </contour>
    <contour>
      <point x="-33" y="655" type="line"/>
      <point x="393" y="655" type="line"/>
      <point x="393" y="259" type="line"/>
      <point x="443" y="259" type="line" identifier="9kdl9SYsn8"/>
      <point x="443" y="705" type="line" identifier="yiV6OCBLHg"/>
      <point x="17" y="705" type="line" identifier="3sQ8t8BZ6b"/>
      <point x="17" y="1600" type="line" identifier="F4sQEYelA8"/>
      <point x="-33" y="1550" type="line"/>
    </contour>
    <contour>
      <point x="19" y="0" type="line" identifier="09VlJ0BjUX"/>
      <point x="19" y="472" type="line" identifier="ho4DrS0rdW"/>
      <point x="-31" y="422" type="line"/>
      <point x="-31" y="-50" type="line"/>
      <point x="733" y="-50" type="line"/>
      <point x="783" y="0" type="line" identifier="EagWihqFM8"/>
    </contour>
  </outline>
</glyph>
<glyph name="five.wide.shadow" format="2">
  <advance width="715"/>
  <outline>
    <contour>
      <point x="357" y="1291" type="line"/>
      <point x="717" y="1291" type="line"/>
      <point x="767" y="1341" type="line" identifier="3ZUkG35meB"/>
      <point x="357" y="1341" type="line" identifier="BcuLfvaQKC"/>
    </contour>
    <contour>
      <point x="19" y="0" type="line" identifier="09VlJ0BjUX"/>
      <point x="19" y="259" type="line" identifier="yZDWuX8LLe"/>
      <point x="-31" y="209" type="line"/>
      <point x="-31" y="-50" type="line"/>
      <point x="717" y="-50" type="line"/>
      <point x="767" y="0" type="line" identifier="EagWihqFM8"/>
    </contour>
    <contour>
      <point x="-33" y="619" type="line"/>
      <point x="378" y="619" type="line"/>
      <point x="378" y="259" type="line"/>
      <point x="428" y="259" type="line" identifier="9kdl9SYsn8"/>
      <point x="428" y="669" type="line" identifier="yiV6OCBLHg"/>
      <point x="17" y="669" type="line" identifier="3sQ8t8BZ6b"/>
      <point x="17" y="1600" type="line" identifier="F4sQEYelA8"/>
      <point x="-33" y="1550" type="line"/>
    </contour>
  </outline>
</glyph>
<glyph name="four.shadow" format="2">
  <advance width="792"/>
  <outline>
    <contour>
      <point x="844" y="667" type="line"/>
      <point x="780" y="667" type="line"/>
      <point x="780" y="617" type="line"/>
      <point x="794" y="617" type="line"/>
    </contour>
    <contour>
      <point x="390" y="1333" type="line"/>
      <point x="357" y="985" type="line"/>
      <point x="390" y="1333" type="line"/>
    </contour>
    <contour>
      <point x="440" y="0" type="line"/>
      <point x="440" y="667" type="line"/>
      <point x="17" y="667" type="line"/>
      <point x="17" y="984" type="line"/>
      <point x="92" y="1680" type="line"/>
      <point x="42" y="1630" type="line"/>
      <point x="-33" y="934" type="line"/>
      <point x="-33" y="617" type="line"/>
      <point x="390" y="617" type="line"/>
      <point x="390" y="-50" type="line"/>
      <point x="730" y="-50" type="line"/>
      <point x="780" y="0" type="line"/>
    </contour>
    <contour>
      <point x="390" y="926" type="line"/>
      <point x="440" y="926" type="line"/>
      <point x="440" y="1600" type="line"/>
      <point x="413" y="1573" type="line"/>
      <point x="423" y="1680" type="line"/>
      <point x="390" y="1333" type="line"/>
    </contour>
  </outline>
</glyph>
<glyph name="one.narrow.shadow" format="2">
  <advance width="461"/>
  <outline>
    <contour>
      <point x="495" y="0" type="line" identifier="5nmxQXofSG"/>
      <point x="156" y="0" type="line"/>
      <point x="156" y="1341" type="line"/>
      <point x="17" y="1341" type="line"/>
      <point x="17" y="1600" type="line"/>
      <point x="-33" y="1550" type="line"/>
      <point x="-33" y="1291" type="line"/>
      <point x="106" y="1291" type="line"/>
      <point x="106" y="-50" type="line"/>
      <point x="445" y="-50" type="line"/>
    </contour>
  </outline>
</glyph>
<glyph name="one.shadow" format="2">
  <advance width="458"/>
  <outline>
    <contour>
      <point x="19" y="0" type="line"/>
      <point x="19" y="259" type="line"/>
      <point x="-31" y="209" type="line"/>
      <point x="-31" y="-50" type="line"/>
      <point x="460" y="-50" type="line"/>
      <point x="510" y="0" type="line" identifier="CURJAw79Zl"/>
    </contour>
    <contour>
      <point x="-31" y="1291" type="line"/>
      <point x="45" y="1291" type="line"/>
      <point x="45" y="259" type="line"/>
      <point x="95" y="259" type="line"/>
      <point x="95" y="1341" type="line"/>
      <point x="19" y="1341" type="line"/>
      <point x="19" y="1600" type="line"/>
      <point x="-31" y="1550" type="line"/>
    </contour>
  </outline>
</glyph>
<glyph name="period.shadow" format="2">
  <advance width="266"/>
  <outline>
    <contour>
      <point x="272" y="0" type="line" identifier="1m237t4hyw"/>
      <point x="71" y="0" type="line" identifier="S4rO5KuHiL"/>
      <point x="71" y="160" type="line"/>
      <point x="111" y="228" type="line" identifier="zfocDyDTCM"/>
      <point x="61" y="178" type="line"/>
      <point x="21" y="110" type="line"/>
      <point x="21" y="-50" type="line"/>
      <point x="222" y="-50" type="line"/>
    </contour>
  </outline>
</glyph>
<glyph name="seven.shadow" format="2">
  <advance width="744"/>
  <outline>
    <contour>
      <point x="-33" y="978" type="line"/>
      <point x="307" y="978" type="line"/>
      <point x="357" y="1028" type="line"/>
      <point x="17" y="1028" type="line" identifier="aaDZsh5Mah"/>
      <point x="17" y="1600" type="line" identifier="36ml4xRICt"/>
      <point x="-33" y="1550" type="line"/>
    </contour>
    <contour>
      <point x="242" y="0" type="line"/>
      <point x="457" y="1223" type="line"/>
      <point x="457" y="1341" type="line"/>
      <point x="357" y="1341" type="line"/>
      <point x="357" y="1291" type="line"/>
      <point x="407" y="1291" type="line"/>
      <point x="407" y="1173" type="line"/>
      <point x="192" y="-50" type="line"/>
      <point x="532" y="-50" type="line"/>
      <point x="582" y="0" type="line" identifier="PiPrv7Kcoy"/>
    </contour>
  </outline>
</glyph>
<glyph name="six.shadow" format="2">
  <advance width="752"/>
  <outline>
    <contour>
      <point x="464" y="1341" type="line"/>
      <point x="396" y="1341" type="line"/>
      <point x="386" y="1291" type="line"/>
      <point x="414" y="1291" type="line"/>
      <point x="414" y="1049" type="line"/>
      <point x="753" y="1049" type="line"/>
      <point x="803" y="1099" type="line" identifier="Wuidbv6mUe"/>
      <point x="464" y="1099" type="line"/>
    </contour>
    <contour>
      <point x="465" y="642" type="line"/>
      <point x="364" y="642" type="line"/>
      <point x="364" y="592" type="line"/>
      <point x="415" y="592" type="line"/>
      <point x="415" y="259" type="line"/>
      <point x="465" y="259" type="line"/>
    </contour>
    <contour>
      <point x="386" y="1291" type="line"/>
      <point x="364" y="1176" type="line"/>
      <point x="386" y="1291" type="line"/>
    </contour>
    <contour>
      <point x="24" y="0" type="line" identifier="uiw6aBUf4P"/>
      <point x="24" y="1177" type="line" identifier="KnMArb0tv8"/>
      <point x="93" y="1600" type="line" identifier="xR3pEHbMJx"/>
      <point x="43" y="1550" type="line"/>
      <point x="-26" y="1127" type="line"/>
      <point x="-26" y="-50" type="line"/>
      <point x="754" y="-50" type="line"/>
      <point x="804" y="0" type="line" identifier="jtYkxiUX6G"/>
    </contour>
  </outline>
</glyph>
<glyph name="six.wide.shadow" format="2">
  <advance width="807"/>
  <outline>
    <contour>
      <point x="401" y="1291" type="line"/>
      <point x="387" y="1215" type="line"/>
      <point x="401" y="1291" type="line"/>
      <point x="776" y="1291" type="line"/>
      <point x="826" y="1341" type="line"/>
      <point x="411" y="1341" type="line"/>
      <point x="401" y="1291" type="line"/>
    </contour>
    <contour>
      <point x="488" y="659" type="line"/>
      <point x="387" y="659" type="line"/>
      <point x="387" y="609" type="line"/>
      <point x="438" y="609" type="line"/>
      <point x="438" y="259" type="line"/>
      <point x="488" y="259" type="line"/>
    </contour>
    <contour>
      <point x="48" y="0" type="line" identifier="uiw6aBUf4P"/>
      <point x="48" y="1216" type="line" identifier="KnMArb0tv8"/>
      <point x="89" y="1600" type="line" identifier="xR3pEHbMJx"/>
      <point x="39" y="1550" type="line"/>
      <point x="-2" y="1166" type="line"/>
      <point x="-2" y="-50" type="line"/>
      <point x="777" y="-50" type="line"/>
      <point x="827" y="0" type="line" identifier="jtYkxiUX6G"/>
    </contour>
  </outline>
</glyph>
<glyph name="three.shadow" format="2">
  <advance width="752"/>
  <outline>
    <contour>
      <point x="-30" y="1090" type="line"/>
      <point x="309" y="1090" type="line"/>
      <point x="359" y="1140" type="line" identifier="AcE5xKDZfE"/>
      <point x="20" y="1140" type="line" identifier="5lNstGRcSF"/>
      <point x="20" y="1600" type="line" identifier="pE1XSRiy68"/>
      <point x="-30" y="1550" type="line"/>
    </contour>
    <contour>
      <point x="386" y="943" type="line"/>
      <point x="366" y="917" type="line"/>
      <point x="380" y="917" type="line" identifier="iic1IBkDqp"/>
      <point x="380" y="920" type="line"/>
      <point x="436" y="993" type="line" identifier="YUjTrmoWd9"/>
      <point x="436" y="1341" type="line" identifier="RHLvSX2Jv6"/>
      <point x="359" y="1341" type="line" identifier="7ogBYufWpl"/>
      <point x="359" y="1291" type="line"/>
      <point x="386" y="1291" type="line"/>
    </contour>
    <contour>
      <point x="19" y="608" type="line"/>
      <point x="407" y="608" type="line"/>
      <point x="407" y="259" type="line"/>
      <point x="457" y="259" type="line" identifier="xv9CFHiFgB"/>
      <point x="457" y="658" type="line" identifier="Dm8zjmbhNr"/>
      <point x="69" y="658" type="line" identifier="8aKgEELrVU"/>
      <point x="69" y="917" type="line" identifier="lRLJEhXMlO"/>
      <point x="19" y="867" type="line"/>
    </contour>
    <contour>
      <point x="17" y="0" type="line" identifier="O9abUc1nmN"/>
      <point x="17" y="405" type="line" identifier="tVui9PiOjA"/>
      <point x="-33" y="355" type="line"/>
      <point x="-33" y="-50" type="line"/>
      <point x="746" y="-50" type="line"/>
      <point x="796" y="0" type="line" identifier="kMJYMTfXCq"/>
    </contour>
  </outline>
</glyph>
<glyph name="three.wide.shadow" format="2">
  <advance width="645"/>
  <outline>
    <contour>
      <point x="17" y="0" type="line" identifier="O9abUc1nmN"/>
      <point x="17" y="259" type="line" identifier="YajKQV3MHP"/>
      <point x="-33" y="209" type="line"/>
      <point x="-33" y="-50" type="line"/>
      <point x="629" y="-50" type="line"/>
      <point x="679" y="0" type="line" identifier="kMJYMTfXCq"/>
    </contour>
    <contour>
      <point x="-30" y="1285" type="line"/>
      <point x="262" y="1285" type="line"/>
      <point x="262" y="893" type="line"/>
      <point x="245" y="867" type="line"/>
      <point x="263" y="867" type="line" identifier="iic1IBkDqp"/>
      <point x="263" y="870" type="line"/>
      <point x="312" y="943" type="line" identifier="YUjTrmoWd9"/>
      <point x="312" y="1335" type="line" identifier="RHLvSX2Jv6"/>
      <point x="20" y="1335" type="line" identifier="7ogBYufWpl"/>
      <point x="20" y="1600" type="line" identifier="pE1XSRiy68"/>
      <point x="-30" y="1550" type="line"/>
    </contour>
    <contour>
      <point x="19" y="658" type="line"/>
      <point x="290" y="658" type="line"/>
      <point x="290" y="259" type="line"/>
      <point x="340" y="259" type="line" identifier="xv9CFHiFgB"/>
      <point x="340" y="708" type="line" identifier="Dm8zjmbhNr"/>
      <point x="69" y="708" type="line" identifier="8aKgEELrVU"/>
      <point x="69" y="867" type="line" identifier="lRLJEhXMlO"/>
      <point x="19" y="817" type="line"/>
    </contour>
  </outline>
</glyph>
<glyph name="two.shadow" format="2">
  <advance width="735"/>
  <outline>
    <contour>
      <point x="17" y="0" type="line"/>
      <point x="17" y="513" type="line" identifier="teVKnpBcVb"/>
      <point x="442" y="1093" type="line"/>
      <point x="442" y="1341" type="line"/>
      <point x="342" y="1341" type="line"/>
      <point x="342" y="1291" type="line"/>
      <point x="392" y="1291" type="line"/>
      <point x="392" y="1043" type="line"/>
      <point x="-33" y="463" type="line"/>
      <point x="-33" y="-50" type="line"/>
      <point x="737" y="-50" type="line"/>
      <point x="787" y="0" type="line" identifier="pzdvPTirLJ"/>
    </contour>
    <contour>
      <point x="-28" y="1078" type="line"/>
      <point x="292" y="1078" type="line"/>
      <point x="342" y="1128" type="line"/>
      <point x="22" y="1128" type="line" identifier="LQ9fBsTy9K"/>
      <point x="22" y="1600" type="line" identifier="svlFvrau4c"/>
      <point x="-28" y="1550" type="line"/>
    </contour>
  </outline>
</glyph>
<glyph name="zero.shadow" format="2">
  <advance width="783"/>
  <outline>
    <contour>
      <point x="35" y="0" type="line" identifier="4KX3b3mGg4"/>
      <point x="35" y="1600" type="line" identifier="rx6fJSLiri"/>
      <point x="-15" y="1550" type="line"/>
      <point x="-15" y="-50" type="line"/>
      <point x="767" y="-50" type="line"/>
      <point x="817" y="0" type="line" identifier="V2j8wYP0nr"/>
    </contour>
    <contour>
      <point x="428" y="259" type="line"/>
      <point x="478" y="259" type="line"/>
      <point x="478" y="1341" type="line"/>
      <point x="374" y="1341" type="line"/>
      <point x="374" y="1291" type="line"/>
      <point x="428" y="1291" type="line"/>
    </contour>
  </outline>
</glyph>
